PathFileType	4	(X/Y/Z)	jw_ngait_og1_rotated.trc
DataRate	CameraRate	NumFrames	NumMarkers	Units	OrigDataRate	OrigDataStartFrame	OrigNumFrames
120.000000	120.000000	6	56	mm	120.000000	82	327
Frame#	Time	Sternum			Neck			RShoulder			LShoulder			Xiphoid			Thoracic			RAsis			LAsis			RPsis			LPsis			Lumbar			RElbow			RWrist			RRadius			RUlna			LElbow			LWrist			LUlna			LRadius			LThighSuperior			LThighInferior			LThighLateral			LPatella			LShankSuperior			LShankInferior			LShankLateral			RThighSuperior			RThighInferior			RThighLateral			RPatella			RShankSuperior			RShankInferior			RShankLateral			RHeel			RToe			RMidfootMedial			RMidfootLateral			RHindfoot			RMidfootSuperior			RToeMedial			RToeLateral			LHeel			LToe			LMidfootMedial			LMidfootLateral			LHindfoot			LMidfootSuperior			LToeMedial			LToeLateral			LShoulderCenter			Oglobal			RShoulderCenter			Sacral			Xglobal			Yglobal			Zglobal			
		X1	Y1	Z1	X2	Y2	Z2	X3	Y3	Z3	X4	Y4	Z4	X5	Y5	Z5	X6	Y6	Z6	X7	Y7	Z7	X8	Y8	Z8	X9	Y9	Z9	X10	Y10	Z10	X11	Y11	Z11	X12	Y12	Z12	X13	Y13	Z13	X14	Y14	Z14	X15	Y15	Z15	X16	Y16	Z16	X17	Y17	Z17	X18	Y18	Z18	X19	Y19	Z19	X20	Y20	Z20	X21	Y21	Z21	X22	Y22	Z22	X23	Y23	Z23	X24	Y24	Z24	X25	Y25	Z25	X26	Y26	Z26	X27	Y27	Z27	X28	Y28	Z28	X29	Y29	Z29	X30	Y30	Z30	X31	Y31	Z31	X32	Y32	Z32	X33	Y33	Z33	X34	Y34	Z34	X35	Y35	Z35	X36	Y36	Z36	X37	Y37	Z37	X38	Y38	Z38	X39	Y39	Z39	X40	Y40	Z40	X41	Y41	Z41	X42	Y42	Z42	X43	Y43	Z43	X44	Y44	Z44	X45	Y45	Z45	X46	Y46	Z46	X47	Y47	Z47	X48	Y48	Z48	X49	Y49	Z49	X50	Y50	Z50	X51	Y51	Z51	X52	Y52	Z52	X53	Y53	Z53	X54	Y54	Z54	X55	Y55	Z55	X56	Y56	Z56	

82.00000	1.63333	848.64197	1321.32251	-127.71116	979.02905	1440.61670	-125.70440	923.69684	1386.76013	-304.95776	922.25574	1380.29004	57.83870	855.57831	1205.66199	-123.07945	1074.96912	1251.57593	-120.84354	874.02625	984.88385	-263.92386	887.34650	967.42163	5.94255	1091.64734	957.85327	-155.89098	1090.94043	961.09473	-96.58547	1089.04016	1029.07788	-129.23131	1005.49292	1061.19031	-391.90012	903.22186	813.92078	-385.62430	883.85315	823.35602	-351.87158	950.75452	809.47107	-379.15735	898.20276	1060.47546	154.77934	717.91650	857.64435	148.14368	760.02539	828.40137	146.87180	719.86993	882.37573	111.98850	969.74835	802.06946	45.87735	1033.22156	566.21967	-9.55885	939.29364	662.47375	-19.51306	1011.26184	488.25797	-65.58271	1080.53088	424.82791	-24.00111	1141.33105	173.73953	-59.33883	1074.25977	293.04037	-96.50696	890.74615	795.02533	-296.85269	763.38684	590.56421	-252.21033	770.52655	690.57764	-224.15239	710.74957	545.42798	-201.42706	752.48145	395.44910	-278.14468	630.08057	193.42574	-236.29919	641.69739	301.90375	-192.81483	640.65295	41.20253	-198.58345	393.56146	206.25414	-228.73477	454.36795	157.90485	-168.31317	474.83517	145.07721	-280.64322	530.14545	83.72716	-272.66626	532.88660	187.61365	-216.10420	420.50662	176.53345	-182.71597	427.46741	177.95694	-270.38742	1248.73657	54.45363	-97.05827	952.62860	53.42256	-70.72567	1038.17896	26.07594	-137.31377	1054.52917	32.24049	-13.90403	1154.36292	22.69768	-30.31434	1077.85510	106.64771	-83.73186	990.09436	42.59192	-112.55200	1003.24786	42.43091	-25.06468	950.24426	1337.75122	48.66273	0.00000	0.00000	0.00000	949.82031	1344.72253	-303.28036	1091.29395	959.47400	-126.23822	200.00000	0.00000	0.00000	0.00000	0.00000	-200.00000	0.00000	200.00000	0.00000
83.00000	1.64167	837.89441	1318.90393	-128.85437	968.51959	1438.14880	-127.16647	913.26752	1383.80994	-306.29126	911.76849	1378.25732	56.61467	844.86481	1203.28979	-124.09559	1064.47485	1249.16492	-121.47897	863.63098	982.24591	-264.22284	876.19843	965.37415	5.96153	1081.04456	955.37738	-155.65501	1080.13245	958.63635	-96.34678	1078.30347	1026.59741	-128.91043	994.21643	1057.73926	-392.23227	893.81604	809.99969	-385.82965	874.35791	819.15234	-352.09943	941.53064	805.90314	-379.57275	887.53278	1058.37158	153.80000	706.70404	855.62610	147.52605	749.36414	826.84271	146.31964	708.64984	880.03674	111.08849	960.05115	800.40784	46.24223	1026.32520	565.69672	-8.54580	930.87598	659.66479	-18.77705	1005.62793	486.42639	-65.23022	1075.37720	424.52747	-23.89006	1138.73193	173.85950	-58.93210	1071.23340	292.57846	-96.91307	880.74847	792.97925	-297.32565	751.92206	589.74615	-251.86656	759.51428	689.44135	-224.11603	698.60840	544.91150	-201.62500	739.92249	394.37460	-278.13022	616.73962	192.64835	-236.32057	628.81635	301.06540	-193.05872	626.21710	39.98613	-198.40648	380.74982	207.29434	-228.80280	441.01605	158.43649	-168.27496	461.20090	145.03366	-280.58893	516.03595	83.29915	-272.38943	519.63055	187.40894	-216.30103	407.31375	177.41248	-182.66873	414.13846	178.36247	-270.30356	1248.43311	55.21706	-97.08163	951.01154	51.76584	-69.95954	1038.13660	25.43959	-137.68936	1054.13696	32.46938	-14.28002	1154.76599	23.11195	-30.38452	1078.54749	106.16883	-84.61260	989.94769	42.43723	-112.41305	1003.17310	42.00568	-25.01544	939.49091	1335.66296	47.49176	0.00000	0.00000	0.00000	939.12354	1341.74500	-304.46790	1080.58850	957.00684	-126.00090	200.00000	0.00000	0.00000	0.00000	0.00000	-200.00000	0.00000	200.00000	0.00000
84.00000	1.65000	827.41589	1316.68628	-130.15804	958.01868	1435.78845	-128.74377	902.44165	1380.82788	-307.25024	901.24677	1376.08289	55.37000	834.28015	1201.00586	-125.17889	1053.88794	1246.94153	-122.05180	853.37134	979.76282	-264.66925	865.15546	963.27032	5.87054	1070.34644	953.04816	-155.28987	1069.14771	956.35840	-95.84247	1067.65723	1024.27905	-128.64458	982.95886	1054.54724	-392.82126	884.51239	806.13678	-386.19785	865.10504	815.31158	-352.38788	932.21954	802.39996	-379.95587	876.61426	1056.09863	152.69893	695.79266	853.18524	146.68056	738.59070	824.98480	145.50397	697.81757	877.86737	110.29293	950.21112	798.66833	46.46826	1018.88513	564.26300	-8.80462	922.63599	657.52527	-18.04091	1000.70618	484.07346	-65.34007	1069.89587	424.20773	-23.43395	1136.04199	174.13879	-58.68028	1067.61316	292.00629	-96.62876	869.52252	791.09601	-298.15509	739.50488	589.70966	-251.13007	748.25177	688.65387	-224.51775	685.97058	544.37665	-201.96626	727.48737	393.38541	-278.18616	604.93378	191.15923	-236.28389	616.39233	299.72052	-193.26741	614.51947	38.49076	-198.18881	369.27161	205.83908	-228.58806	429.55542	157.30846	-168.04771	449.36206	143.32622	-280.35840	504.13391	81.58250	-272.03748	508.03513	185.96805	-216.47189	395.78259	176.15834	-182.36166	402.30453	176.58054	-270.04031	1248.11060	56.23182	-97.05213	951.25323	51.48646	-70.10178	1037.80847	24.77473	-136.34312	1054.60217	31.39203	-13.01639	1155.00610	23.48899	-30.27264	1075.87659	106.19881	-83.01704	989.70636	41.97717	-112.27259	1002.99554	41.62067	-24.85619	929.16968	1333.78296	46.06496	0.00000	0.00000	0.00000	928.50867	1339.08643	-305.90686	1069.74707	954.70325	-125.56617	200.00000	0.00000	0.00000	0.00000	0.00000	-200.00000	0.00000	200.00000	0.00000
85.00000	1.65833	816.87720	1314.51367	-131.58636	947.32886	1433.68689	-130.12555	892.17249	1378.10364	-308.74304	890.38055	1374.33740	54.07689	823.59015	1198.94128	-126.40671	1043.24951	1244.82971	-122.60848	842.79749	977.43884	-265.32712	853.72357	961.33868	5.64058	1059.45813	950.90216	-154.78880	1058.11926	954.21649	-95.52717	1056.65332	1022.14337	-128.49768	971.84637	1051.53918	-393.59903	875.18805	802.45178	-386.56897	855.85681	811.46747	-352.75470	922.85126	798.92767	-380.44559	865.54443	1053.97900	151.43159	685.21320	850.79523	145.97185	728.03607	822.59912	144.46790	686.94855	875.23737	109.50782	939.89014	796.84747	46.61140	1010.50195	563.26599	-8.34158	913.94324	655.70587	-17.20826	995.66107	481.60477	-66.17125	1063.69983	423.65710	-22.96545	1133.70679	174.38187	-58.59052	1063.42468	291.39453	-96.09057	858.07623	789.40576	-298.74585	727.00366	589.24426	-251.36919	734.91394	689.00385	-225.70102	672.81720	543.76947	-202.85699	715.18829	392.28864	-278.18591	594.79486	189.10762	-236.21817	604.85785	297.91650	-193.43573	605.14587	36.34686	-197.74242	359.07428	202.26637	-228.28040	419.72418	154.41460	-167.46645	439.15695	139.96300	-279.78302	494.23901	78.39249	-271.45618	497.90637	183.16388	-216.33810	386.05524	173.08159	-181.88692	392.18082	173.05388	-269.71994	1247.78601	57.18911	-97.16473	951.20599	51.15425	-70.08397	1037.69092	24.58192	-136.62517	1054.33130	31.40747	-13.28902	1154.88940	23.68916	-30.14944	1075.67371	106.14497	-83.37403	989.60138	41.77043	-112.42233	1002.80103	41.00238	-24.64473	918.32465	1332.17444	44.75761	0.00000	0.00000	0.00000	918.24158	1336.52441	-307.22791	1058.78870	952.55933	-125.15799	200.00000	0.00000	0.00000	0.00000	0.00000	-200.00000	0.00000	200.00000	0.00000
86.00000	1.66667	806.25433	1312.51343	-133.13857	936.70355	1431.74927	-131.69225	881.58148	1375.42078	-309.91296	879.51410	1372.63843	52.71804	812.83362	1197.04846	-127.61377	1032.42468	1242.90308	-123.19249	832.16040	975.20154	-266.01569	842.13788	959.70953	5.46965	1048.41431	948.87183	-154.38232	1046.87756	952.19238	-95.20056	1045.56262	1020.10944	-128.31570	960.70074	1048.76880	-394.36206	865.82550	798.79547	-386.94876	846.43890	807.79449	-353.05276	913.67212	795.74109	-381.12296	854.61444	1051.99268	149.86861	675.06995	848.30029	144.96501	717.93079	820.00275	143.45349	676.73004	872.84662	108.58646	929.75311	795.24158	46.89965	1001.86066	561.99969	-7.95982	904.52740	653.93524	-16.53109	988.42340	479.94583	-66.67997	1057.21997	423.18829	-22.48774	1131.54602	175.27716	-57.96672	1059.31323	290.89236	-95.93340	846.88806	787.86298	-298.95123	713.89325	589.08313	-251.61662	721.92078	688.09460	-226.13373	659.60083	543.04150	-204.27888	703.24530	391.11716	-278.11801	585.94244	186.26932	-235.85567	594.13617	295.27936	-193.46201	597.99774	33.75276	-196.93449	350.21487	196.93585	-228.14961	411.25302	149.90898	-167.40529	431.02469	135.24149	-279.63470	486.82349	74.32803	-270.92001	489.20099	179.31612	-216.26205	377.39563	168.02005	-181.79185	383.62662	168.00336	-269.43405	1247.43225	58.37389	-97.27824	950.87341	50.28611	-69.93336	1037.59265	24.64581	-137.15402	1054.00635	31.20960	-13.77330	1154.95471	23.60211	-30.09129	1075.90186	106.02875	-83.67853	989.64294	41.65571	-112.48433	1002.62823	41.01328	-23.88886	907.56238	1330.67773	43.23439	0.00000	0.00000	0.00000	907.74750	1334.07410	-308.76157	1047.64600	950.53210	-124.79144	200.00000	0.00000	0.00000	0.00000	0.00000	-200.00000	0.00000	200.00000	0.00000
87.00000	1.67500	795.42285	1310.76904	-134.72459	925.81317	1429.89209	-133.10907	871.49750	1373.12634	-311.68887	868.19720	1371.13550	51.30410	801.84070	1195.27795	-128.95395	1021.55310	1241.08447	-123.72262	821.25665	973.19934	-266.80600	830.53851	958.04700	5.27503	1037.07434	946.96497	-153.94217	1035.56531	950.41858	-94.91808	1034.30676	1018.27435	-128.33200	949.36658	1045.95093	-394.96655	856.54651	795.39880	-387.44598	837.49268	804.22528	-353.29932	904.33209	792.65009	-381.65045	843.94641	1050.44995	148.35980	665.26337	845.49457	143.94514	708.25629	817.70654	142.55478	666.54462	870.04211	107.62451	919.36359	793.76080	47.19358	992.95453	560.44397	-8.19094	894.88373	652.23248	-16.07562	980.08240	478.37430	-66.19495	1050.66858	422.58698	-22.00438	1129.17896	175.95590	-57.56013	1055.04480	290.60358	-95.42213	835.41077	786.33832	-298.97141	700.50989	588.66174	-252.49434	708.90088	687.37933	-227.46718	646.09998	541.68939	-205.61472	692.16785	389.53204	-278.07880	578.26147	182.83745	-235.20184	584.62305	292.34778	-193.40762	592.84058	31.21261	-195.82785	342.63571	190.22197	-228.18530	404.22360	144.48761	-167.01395	424.15540	129.30719	-279.14679	480.94714	69.19671	-270.13043	481.68784	174.74951	-216.14572	370.33725	162.04214	-181.72379	376.49954	161.52722	-269.53110	1247.11804	59.64289	-97.45538	950.62781	49.79815	-69.72709	1037.41968	24.64037	-136.97374	1054.12720	30.53740	-13.59878	1154.75891	23.94333	-30.29726	1074.48108	106.17449	-83.01665	989.23468	40.91194	-112.11954	1002.33185	40.04864	-24.12407	896.13782	1329.29089	41.95058	0.00000	0.00000	0.00000	897.51666	1331.91760	-310.04932	1036.31982	948.69177	-124.43013	200.00000	0.00000	0.00000	0.00000	0.00000	-200.00000	0.00000	200.00000	0.00000
